<?xml version="1.0" encoding="UTF-8" standalone="no"?>
<!-- Created with Inkscape (http://www.inkscape.org/) -->

<svg
   width="66.433876mm"
   height="70.634239mm"
   viewBox="0 0 66.433876 70.634242"
   version="1.1"
   id="svg1"
   inkscape:version="1.3 (0e150ed, 2023-07-21)"
   sodipodi:docname="Disk1-Label.svg"
   xmlns:inkscape="http://www.inkscape.org/namespaces/inkscape"
   xmlns:sodipodi="http://sodipodi.sourceforge.net/DTD/sodipodi-0.dtd"
   xmlns="http://www.w3.org/2000/svg"
   xmlns:svg="http://www.w3.org/2000/svg">
  <sodipodi:namedview
     id="namedview1"
     pagecolor="#ffffff"
     bordercolor="#000000"
     borderopacity="0.25"
     inkscape:showpageshadow="2"
     inkscape:pageopacity="0.0"
     inkscape:pagecheckerboard="0"
     inkscape:deskcolor="#d1d1d1"
     inkscape:document-units="mm"
     inkscape:zoom="0.5946522"
     inkscape:cx="644.91479"
     inkscape:cy="359.87423"
     inkscape:window-width="1920"
     inkscape:window-height="1027"
     inkscape:window-x="3432"
     inkscape:window-y="25"
     inkscape:window-maximized="0"
     inkscape:current-layer="layer1"
     showgrid="false" />
  <defs
     id="defs1" />
  <g
     inkscape:label="Layer 1"
     inkscape:groupmode="layer"
     id="layer1"
     transform="translate(-70.057582,-115.57266)">
    <path
       style="opacity:1;fill:#ffffff;fill-opacity:1;stroke:none;stroke-width:0.364;stroke-linecap:square;stroke-opacity:1"
       d="m 70.293448,119.10433 c -0.07865,-2.24166 1.462818,-3.49237 3.704476,-3.49237 l 56.823856,-0.0393 c 4.05072,0 5.66968,1.30763 5.66968,5.59431 -0.004,0.25439 -0.1677,38.87888 -0.16857,39.27415 -0.0302,13.65884 -17.31894,25.76544 -31.65683,25.76544 -13.953094,0.0678 -34.620188,-9.93779 -34.608473,-28.01189 9.98e-4,-1.541 0.238625,-38.83337 0.235861,-39.09034 z"
       id="path21"
       sodipodi:nodetypes="ccccscsc"
       inkscape:label="Label" />
    <rect
       style="opacity:0.450847;fill:#ffffff;fill-opacity:1;stroke:#000000;stroke-width:0.8;stroke-linecap:square;stroke-linejoin:miter;stroke-dasharray:none;stroke-opacity:1;paint-order:normal"
       id="rect1"
       width="28.315681"
       height="9.5565443"
       x="89.902275"
       y="164.78151" />
    <g
       id="g2"
       transform="matrix(0.36406587,0,0,0.36406587,59.836457,117.02908)"
       inkscape:label="mini-zia"
       style="stroke-width:0.999819;stroke-dasharray:none">
      <path
         style="display:inline;opacity:1;fill:#000000;fill-opacity:1;stroke:none;stroke-width:0.999819;stroke-dasharray:none;stroke-opacity:1;paint-order:normal"
         d="m 86.294219,138.6004 c 4.25627,2.59585 18.451801,-4.81203 22.123421,-3.43225 0.8599,0.3638 1.1429,1.78594 0.38222,2.64583 -7.01146,2.94349 -24.490021,18.24891 -26.143661,20.56402 16.66875,-12.50156 28.409631,-10.61641 28.409631,-10.61641 0,0 -14.783941,0.43597 -35.123781,19.55212 -0.52917,0.3638 -1.0463,-2.28771 -0.61635,-4.43745 4.7625,-8.59896 24.01671,-22.2626 30.382321,-26.39253 -5.58927,1.61364 -22.266911,13.03797 -19.413801,2.11667 z"
         id="path127-9"
         sodipodi:nodetypes="ccccccccc" />
      <path
         style="display:inline;opacity:1;fill:#000000;fill-opacity:1;stroke:none;stroke-width:0.999819;stroke-dasharray:none;stroke-opacity:1;paint-order:normal"
         d="m 110.74683,134.01931 c 0,0 0.56224,2.24895 -0.1323,4.13411 -0.61184,1.52135 2.77813,2.16628 2.51355,-1.05833 -0.18191,-2.06706 -2.38125,-3.07578 -2.38125,-3.07578 z"
         id="path128-1"
         sodipodi:nodetypes="cccc" />
      <path
         style="display:inline;opacity:1;fill:#000000;fill-opacity:1;stroke:none;stroke-width:0.999819;stroke-dasharray:none;stroke-opacity:1;paint-order:normal"
         d="m 109.11453,139.92331 1.75286,1.47175 c 0,0 -2.97656,4.10104 -3.25768,5.37435 1.00872,-0.18191 11.02982,-8.96276 11.02982,-8.96276 0,0 -6.8461,6.05234 -10.12031,10.7983 -1.19063,1.71979 -3.52227,2.43086 -3.25769,-0.85989 0.16537,-2.29857 3.853,-7.82175 3.853,-7.82175 z"
         id="path129-4"
         sodipodi:nodetypes="ccccccc" />
      <path
         id="path130-0"
         style="display:inline;opacity:1;fill:#000000;fill-opacity:1;stroke:none;stroke-width:0.999819;stroke-dasharray:none;stroke-opacity:1;paint-order:normal"
         d="m 129.91339,133.9397 c -0.65135,0.0168 -1.47227,0.24029 -2.15027,1.06712 -1.48696,-4.15566 -16.39668,5.62377 -12.75064,11.24479 1.48201,1.44064 3.01149,1.76245 7.43262,-1.66553 0.0869,0.24166 0.12063,0.78429 0.0677,1.26814 -0.0839,0.76753 2.38561,0.65403 2.61948,0.046 2.19223,-6.79638 4.39849,-11.55636 5.91436,-11.7874 0,0 -0.48194,-0.18989 -1.13326,-0.17311 z m -4.04188,2.33424 c 0.0661,2.18281 -6.77193,9.30484 -9.41777,8.87489 0.39688,-3.70416 6.80501,-8.90796 9.41777,-8.87489 z"
         sodipodi:nodetypes="scccsccsccc" />
    </g>
    <g
       id="g1"
       inkscape:label="Zia">
      <path
         style="display:inline;opacity:1;fill:#000000;fill-opacity:1;stroke:none;stroke-width:0.171979;stroke-dasharray:none;stroke-opacity:1;paint-order:normal"
         d="m 86.294219,138.6004 c 4.25627,2.59585 18.451801,-4.81203 22.123421,-3.43225 0.8599,0.3638 1.1429,1.78594 0.38222,2.64583 -7.01146,2.94349 -24.490021,18.24891 -26.143661,20.56402 16.66875,-12.50156 28.409631,-10.61641 28.409631,-10.61641 0,0 -14.783941,0.43597 -35.123781,19.55212 -0.52917,0.3638 -1.0463,-2.28771 -0.61635,-4.43745 4.7625,-8.59896 24.01671,-22.2626 30.382321,-26.39253 -5.58927,1.61364 -22.266911,13.03797 -19.413801,2.11667 z"
         id="path127"
         sodipodi:nodetypes="ccccccccc" />
      <path
         style="display:inline;opacity:1;fill:#000000;fill-opacity:1;stroke:none;stroke-width:0.171979;stroke-dasharray:none;stroke-opacity:1;paint-order:normal"
         d="m 110.74683,134.01931 c 0,0 0.56224,2.24895 -0.1323,4.13411 -0.61184,1.52135 2.77813,2.16628 2.51355,-1.05833 -0.18191,-2.06706 -2.38125,-3.07578 -2.38125,-3.07578 z"
         id="path128"
         sodipodi:nodetypes="cccc" />
      <path
         style="display:inline;opacity:1;fill:#000000;fill-opacity:1;stroke:none;stroke-width:0.171979;stroke-dasharray:none;stroke-opacity:1;paint-order:normal"
         d="m 109.11453,139.92331 1.75286,1.47175 c 0,0 -2.97656,4.10104 -3.25768,5.37435 1.00872,-0.18191 11.02982,-8.96276 11.02982,-8.96276 0,0 -6.8461,6.05234 -10.12031,10.7983 -1.19063,1.71979 -3.52227,2.43086 -3.25769,-0.85989 0.16537,-2.29857 3.853,-7.82175 3.853,-7.82175 z"
         id="path129"
         sodipodi:nodetypes="ccccccc" />
      <path
         id="path130"
         style="display:inline;opacity:1;fill:#000000;fill-opacity:1;stroke:none;stroke-width:0.166594;stroke-dasharray:none;stroke-opacity:1;paint-order:normal"
         d="m 129.91339,133.9397 c -0.65135,0.0168 -1.47227,0.24029 -2.15027,1.06712 -1.48696,-4.15566 -16.39668,5.62377 -12.75064,11.24479 1.48201,1.44064 3.01149,1.76245 7.43262,-1.66553 0.0869,0.24166 0.12063,0.78429 0.0677,1.26814 -0.0839,0.76753 2.38561,0.65403 2.61948,0.046 2.19223,-6.79638 4.39849,-11.55636 5.91436,-11.7874 0,0 -0.48194,-0.18989 -1.13326,-0.17311 z m -4.04188,2.33424 c 0.0661,2.18281 -6.77193,9.30484 -9.41777,8.87489 0.39688,-3.70416 6.80501,-8.90796 9.41777,-8.87489 z"
         sodipodi:nodetypes="scccsccsccc" />
    </g>
    <text
       xml:space="preserve"
       style="font-style:normal;font-variant:normal;font-weight:normal;font-stretch:normal;font-size:3.52778px;font-family:Roboto;-inkscape-font-specification:'Roboto, Normal';font-variant-ligatures:normal;font-variant-caps:normal;font-variant-numeric:normal;font-variant-east-asian:normal;text-align:center;text-anchor:middle;fill:#ffffff;stroke-width:0.171979"
       x="103.89301"
       y="127.25225"
       id="text1"><tspan
         sodipodi:role="line"
         id="tspan1"
         style="font-style:normal;font-variant:normal;font-weight:normal;font-stretch:normal;font-size:3.52778px;font-family:Roboto;-inkscape-font-specification:'Roboto, Normal';font-variant-ligatures:normal;font-variant-caps:normal;font-variant-numeric:normal;font-variant-east-asian:normal;fill:#000000;fill-opacity:1;stroke-width:0.171979"
         x="103.89301"
         y="127.25225">hamster</tspan></text>
    <rect
       style="opacity:1;fill:#060606;fill-opacity:1;stroke:none;stroke-width:0.364;stroke-linecap:square;stroke-linejoin:miter;stroke-dasharray:none;stroke-opacity:1;paint-order:normal"
       id="rect2"
       width="10.567276"
       height="9.2602711"
       x="107.61937"
       y="164.93294" />
    <path
       style="opacity:1;fill:#ff0000;fill-opacity:1;stroke:none;stroke-width:0.364;stroke-linecap:square;stroke-linejoin:miter;stroke-dasharray:none;stroke-opacity:1;paint-order:normal"
       d="m 108.73171,165.85062 1.25139,-0.45884 5.97885,-0.0417 1.18187,0.55618 c 0.0278,2.40544 0.86207,7.84203 -4.10177,7.81422 -4.92213,0.0139 -4.40767,-5.43659 -4.31034,-7.86985 z"
       id="path2"
       sodipodi:nodetypes="cccccc" />
    <text
       xml:space="preserve"
       style="font-style:normal;font-variant:normal;font-weight:normal;font-stretch:normal;font-size:2.82222px;font-family:Roboto;-inkscape-font-specification:'Roboto, Normal';font-variant-ligatures:normal;font-variant-caps:normal;font-variant-numeric:normal;font-variant-east-asian:normal;text-align:center;text-anchor:middle;fill:#ff0000;stroke-width:0.364;stroke-linecap:square"
       x="104.11547"
       y="163.62593"
       id="text2"><tspan
         sodipodi:role="line"
         id="tspan2"
         style="font-size:2.82222px;stroke-width:0.364"
         x="104.11547"
         y="163.62593">T  I  T  A  N  I  U  M</tspan></text>
    <path
       style="opacity:1;fill:#454545;fill-opacity:1;stroke:none;stroke-width:0.364;stroke-linecap:square;stroke-opacity:1"
       d="m 102.72505,132.48027 30.3114,-16.68517 -58.898664,-0.11123 z"
       id="path22"
       inkscape:label="diamond" />
    <path
       style="opacity:0.8;fill:none;fill-opacity:1;stroke:#000000;stroke-width:0.364;stroke-linecap:square;stroke-opacity:1"
       d="m 75.027662,141.21218 54.782988,0.77864"
       id="path23"
       inkscape:label="line" />
    <path
       style="opacity:0.8;fill:none;fill-opacity:1;stroke:#000000;stroke-width:0.364;stroke-linecap:square;stroke-opacity:1"
       d="m 75.027662,148.10872 55.005458,1.16796"
       id="path24"
       inkscape:label="line" />
    <path
       style="opacity:0.8;fill:none;fill-opacity:1;stroke:#000000;stroke-width:0.364;stroke-linecap:square;stroke-opacity:1"
       d="M 129.9775,156.17322 75.138896,155.33896"
       id="path25"
       inkscape:label="line" />
  </g>
</svg>
